<svg width="351" height="348" viewBox="0 0 351 348" fill="none" xmlns="http://www.w3.org/2000/svg">
<rect width="351" height="348" fill="white"/>
<path d="M37.9458 277.46V244.541H104.351V310.378H37.9458V277.46ZM94.8647 277.46V253.946H47.4323V300.973H94.8647V277.46ZM56.9188 277.46V263.351H85.3782V291.568H56.9188V277.46ZM123.324 305.676V300.973H113.838V282.162H123.324V253.946H132.811V244.541H113.838V235.135H75.8918V225.73H85.3782V216.324H66.4053V235.135H56.9188V225.73H37.9458V216.324H56.9188V197.514H47.4323V206.919H37.9458V188.108H56.9188V197.514H66.4053V206.919H75.8918V197.514H85.3782V206.919H104.351V197.514H94.8647V188.108H66.4053V178.703H94.8647V169.297H66.4053V159.892H56.9188V169.297H37.9458V141.081H47.4323V150.487H104.351V141.081H94.8647V131.676H75.8918V141.081H66.4053V131.676H47.4323V112.865H66.4053V131.676H75.8918V122.27H94.8647V112.865H104.351V122.27H94.8647V131.676H104.351V141.081H113.838V122.27H123.324V112.865H113.838V84.6487H132.811V94.0541H142.297V103.459H132.811V112.865H142.297V169.297H123.324V159.892H113.838V169.297H104.351V178.703H94.8647V188.108H104.351V197.514H113.838V206.919H132.811V197.514H123.324V188.108H113.838V178.703H132.811V197.514H142.297V178.703H151.784V197.514H161.27V169.297H170.757V159.892H180.243V169.297H170.757V178.703H180.243V188.108H208.703V178.703H199.216V169.297H189.73V150.487H180.243V141.081H189.73V131.676H199.216V122.27H189.73V112.865H180.243V131.676H170.757V122.27H161.27V131.676H151.784V122.27H161.27V112.865H151.784V84.6487H142.297V75.2433H151.784V84.6487H161.27V47.027H170.757V65.8379H189.73V56.4325H180.243V37.6216H199.216V47.027H189.73V56.4325H208.703V47.027H218.189V37.6216H237.162V65.8379H218.189V56.4325H208.703V75.2433H218.189V103.459H227.676V94.0541H237.162V141.081H256.135V131.676H246.649V112.865H265.621V141.081H284.594V131.676H275.108V112.865H284.594V131.676H294.081V122.27H313.054V141.081H303.567V131.676H294.081V141.081H284.594V169.297H294.081V178.703H284.594V188.108H265.621V197.514H256.135V206.919H237.162V197.514H227.676V188.108H218.189V206.919H227.676V216.324H256.135V225.73H275.108V216.324H265.621V206.919H275.108V197.514H284.594V206.919H294.081V216.324H303.567V197.514H294.081V188.108H313.054V216.324H303.567V235.135H313.054V253.946H303.567V282.162H313.054V291.568H284.594V310.378H256.135V300.973H275.108V291.568H256.135V272.757H246.649V291.568H237.162V300.973H246.649V310.378H227.676V282.162H218.189V300.973H208.703V291.568H199.216V253.946H208.703V282.162H218.189V253.946H227.676V235.135H218.189V225.73H208.703V216.324H218.189V206.919H208.703V197.514H199.216V235.135H208.703V244.541H189.73V263.351H180.243V282.162H189.73V291.568H180.243V300.973H199.216V310.378H180.243V300.973H170.757V291.568H161.27V310.378H123.324V305.676ZM151.784 291.568V282.162H161.27V253.946H142.297V263.351H151.784V272.757H132.811V282.162H123.324V291.568H132.811V300.973H151.784V291.568ZM284.594 282.162V272.757H294.081V253.946H303.567V244.541H294.081V216.324H284.594V244.541H294.081V253.946H284.594V263.351H275.108V291.568H284.594V282.162ZM237.162 277.46V272.757H227.676V282.162H237.162V277.46ZM180.243 258.649V253.946H170.757V263.351H180.243V258.649ZM265.621 249.243V235.135H237.162V263.351H265.621V249.243ZM246.649 249.243V244.541H256.135V253.946H246.649V249.243ZM170.757 239.838V235.135H189.73V225.73H170.757V216.324H161.27V225.73H170.757V235.135H151.784V225.73H142.297V235.135H132.811V225.73H123.324V216.324H113.838V206.919H104.351V216.324H94.8647V225.73H104.351V216.324H113.838V225.73H123.324V235.135H132.811V244.541H170.757V239.838ZM142.297 211.622V206.919H132.811V216.324H142.297V211.622ZM189.73 206.919V197.514H170.757V206.919H180.243V216.324H189.73V206.919ZM246.649 192.811V188.108H237.162V197.514H246.649V192.811ZM265.621 183.405V178.703H275.108V150.487H265.621V159.892H256.135V169.297H246.649V159.892H227.676V150.487H218.189V141.081H227.676V112.865H218.189V103.459H208.703V94.0541H199.216V103.459H189.73V75.2433H199.216V84.6487H208.703V75.2433H199.216V65.8379H189.73V75.2433H180.243V103.459H189.73V112.865H199.216V103.459H208.703V131.676H199.216V141.081H189.73V150.487H199.216V169.297H208.703V159.892H227.676V169.297H237.162V178.703H256.135V188.108H265.621V183.405ZM256.135 174V169.297H265.621V178.703H256.135V174ZM104.351 164.595V159.892H113.838V150.487H104.351V159.892H94.8647V169.297H104.351V164.595ZM132.811 145.784V141.081H123.324V150.487H132.811V145.784ZM132.811 98.7568V94.0541H123.324V103.459H132.811V98.7568ZM170.757 94.0541V84.6487H161.27V103.459H170.757V94.0541ZM227.676 51.7298V47.027H218.189V56.4325H227.676V51.7298ZM303.567 305.676V300.973H313.054V310.378H303.567V305.676ZM303.567 169.297V159.892H294.081V150.487H303.567V159.892H313.054V178.703H303.567V169.297ZM37.9458 70.5406V37.6216H104.351V103.459H37.9458V70.5406ZM94.8647 70.5406V47.027H47.4323V94.0541H94.8647V70.5406ZM56.9188 70.5406V56.4325H85.3782V84.6487H56.9188V70.5406ZM246.649 70.5406V37.6216H313.054V103.459H246.649V70.5406ZM303.567 70.5406V47.027H256.135V94.0541H303.567V70.5406ZM265.621 70.5406V56.4325H294.081V84.6487H265.621V70.5406ZM113.838 70.5406V65.8379H123.324V75.2433H113.838V70.5406ZM132.811 61.1352V56.4325H123.324V37.6216H132.811V47.027H142.297V37.6216H151.784V47.027H142.297V65.8379H132.811V61.1352Z" fill="black"/>
</svg>
