<svg xmlns="http://www.w3.org/2000/svg" width="28" height="28" fill="none" viewBox="0 0 28 28">
  <path fill="#F85D5B" d="M27.486 15.236a1.753 1.753 0 0 0 0-2.477l-7-7a1.753 1.753 0 0 0-2.477 2.477l4.014 4.014H10.5c-.968 0-1.75.782-1.75 1.75s.782 1.75 1.75 1.75h11.523l-4.014 4.014a1.753 1.753 0 0 0 2.477 2.477l7-7v-.005ZM8.75 5.25c.968 0 1.75-.782 1.75-1.75s-.782-1.75-1.75-1.75h-3.5A5.251 5.251 0 0 0 0 7v14a5.251 5.251 0 0 0 5.25 5.25h3.5c.968 0 1.75-.782 1.75-1.75s-.782-1.75-1.75-1.75h-3.5c-.968 0-1.75-.782-1.75-1.75V7c0-.968.782-1.75 1.75-1.75h3.5Z"/>
</svg>
