<svg xmlns="http://www.w3.org/2000/svg" width="20" height="20" fill="none" viewBox="0 0 20 20">
  <g clip-path="url(#a)">
    <path fill="#878787" d="M16.25 8.125a8.1 8.1 0 0 1-1.563 4.793l4.946 4.95a1.252 1.252 0 0 1-1.77 1.769l-4.945-4.95a8.078 8.078 0 0 1-4.793 1.563A8.124 8.124 0 0 1 0 8.125 8.124 8.124 0 0 1 8.125 0a8.124 8.124 0 0 1 8.125 8.125ZM8.125 13.75a5.625 5.625 0 1 0 0-11.25 5.625 5.625 0 0 0 0 11.25Z"/>
  </g>
  <defs>
    <clipPath id="a">
      <path fill="#fff" d="M0 0h20v20H0z"/>
    </clipPath>
  </defs>
</svg>
