<svg xmlns="http://www.w3.org/2000/svg" width="24" height="24" fill="none" viewBox="0 0 24 24">
  <g clip-path="url(#a)">
    <path fill="#878787" d="M23.245 7.81c.15.407.024.862-.3 1.153l-2.03 1.846a9.063 9.063 0 0 1 0 2.382l2.03 1.846c.324.291.45.746.3 1.154a11.628 11.628 0 0 1-.74 1.607l-.22.38c-.31.516-.657 1.003-1.037 1.463a1.06 1.06 0 0 1-1.148.318l-2.611-.83a9.019 9.019 0 0 1-2.063 1.191l-.585 2.677a1.06 1.06 0 0 1-.853.834 12.103 12.103 0 0 1-3.985 0 1.06 1.06 0 0 1-.853-.834l-.586-2.677a9.02 9.02 0 0 1-2.062-1.19l-2.607.834a1.07 1.07 0 0 1-1.148-.319c-.38-.46-.727-.947-1.036-1.462l-.22-.38a11.618 11.618 0 0 1-.741-1.608 1.062 1.062 0 0 1 .3-1.153l2.03-1.847a9.07 9.07 0 0 1 0-2.386L1.05 8.963a1.062 1.062 0 0 1-.3-1.154c.206-.557.455-1.092.74-1.607l.22-.38c.31-.516.657-1.003 1.037-1.463a1.06 1.06 0 0 1 1.148-.318l2.611.83A9.02 9.02 0 0 1 8.57 3.68l.586-2.677a1.06 1.06 0 0 1 .853-.834A11.62 11.62 0 0 1 12 0c.68 0 1.345.056 1.992.164.431.07.76.408.853.834l.586 2.677a9.02 9.02 0 0 1 2.063 1.19l2.61-.83a1.07 1.07 0 0 1 1.15.32c.379.46.726.947 1.035 1.462l.22.38c.286.516.535 1.05.741 1.608l-.005.004ZM12 15.75a3.75 3.75 0 1 0 0-7.5 3.75 3.75 0 0 0 0 7.5Z"/>
  </g>
  <defs>
    <clipPath id="a">
      <path fill="#fff" d="M0 0h24v24H0z"/>
    </clipPath>
  </defs>
</svg>
