<svg xmlns="http://www.w3.org/2000/svg" width="26" height="23" fill="none" viewBox="0 0 26 23">
  <g clip-path="url(#a)">
    <path fill="#878787" d="M12.738 1.778c-3.507 0-6.315 1.597-8.36 3.498-2.03 1.884-3.39 4.14-4.032 5.69a1.38 1.38 0 0 0 0 1.068c.643 1.55 2.001 3.806 4.033 5.69 2.044 1.901 4.852 3.498 8.359 3.498 3.507 0 6.315-1.597 8.36-3.498 2.03-1.888 3.39-4.14 4.036-5.69a1.38 1.38 0 0 0 0-1.068c-.647-1.55-2.005-3.806-4.037-5.69-2.044-1.901-4.852-3.498-8.36-3.498ZM6.488 11.5a6.25 6.25 0 1 1 12.5 0 6.25 6.25 0 0 1-12.5 0Zm6.25-2.778a2.78 2.78 0 0 1-3.659 2.635c-.239-.078-.516.07-.508.321a4.17 4.17 0 0 0 5.243 3.845 4.17 4.17 0 0 0-.898-8.19c-.252-.008-.4.265-.321.508.09.278.143.573.143.881Z"/>
  </g>
  <defs>
    <clipPath id="a">
      <path fill="#fff" d="M.238.389h25v22.222h-25z"/>
    </clipPath>
  </defs>
</svg>
