<svg width="22" height="22" viewBox="0 0 22 22" fill="none" xmlns="http://www.w3.org/2000/svg">
<path d="M12.3214 1.64286C12.3214 0.734152 11.5873 0 10.6786 0C9.76987 0 9.03571 0.734152 9.03571 1.64286V9.03571H1.64286C0.734152 9.03571 0 9.76987 0 10.6786C0 11.5873 0.734152 12.3214 1.64286 12.3214H9.03571V19.7143C9.03571 20.623 9.76987 21.3571 10.6786 21.3571C11.5873 21.3571 12.3214 20.623 12.3214 19.7143V12.3214H19.7143C20.623 12.3214 21.3571 11.5873 21.3571 10.6786C21.3571 9.76987 20.623 9.03571 19.7143 9.03571H12.3214V1.64286Z" fill="#46BB91"/>
</svg>
