<svg width="26" height="25" viewBox="0 0 26 25" fill="none" xmlns="http://www.w3.org/2000/svg">
<path d="M17.829 0.942383L15.4657 3.30566L21.8134 9.65332L24.1767 7.29004C25.3974 6.06934 25.3974 4.0918 24.1767 2.87109L22.2528 0.942383C21.0321 -0.27832 19.0546 -0.27832 17.8339 0.942383H17.829ZM14.3622 4.40918L2.98037 15.7959C2.47256 16.3037 2.10147 16.9336 1.89639 17.6221L0.167874 23.4961C0.0458042 23.9111 0.158109 24.3555 0.460843 24.6582C0.763578 24.9609 1.20791 25.0732 1.61807 24.9561L7.49209 23.2275C8.18057 23.0225 8.81045 22.6514 9.31826 22.1436L20.7099 10.7568L14.3622 4.40918Z" fill="#878787"/>
</svg>
