<svg width="20" height="17" viewBox="0 0 20 17" fill="none" xmlns="http://www.w3.org/2000/svg">
<path d="M10.0001 0.722229C7.19455 0.722229 4.94803 2.00001 3.31261 3.52084C1.68761 5.02778 0.600803 6.83334 0.0869141 8.07292C-0.0276693 8.34723 -0.0276693 8.65278 0.0869141 8.92709C0.600803 10.1667 1.68761 11.9722 3.31261 13.4792C4.94803 15 7.19455 16.2778 10.0001 16.2778C12.8057 16.2778 15.0522 15 16.6876 13.4792C18.3126 11.9688 19.3994 10.1667 19.9168 8.92709C20.0314 8.65278 20.0314 8.34723 19.9168 8.07292C19.3994 6.83334 18.3126 5.02778 16.6876 3.52084C15.0522 2.00001 12.8057 0.722229 10.0001 0.722229ZM5.00011 8.50001C5.00011 7.17392 5.52689 5.90215 6.46457 4.96447C7.40226 4.02679 8.67403 3.50001 10.0001 3.50001C11.3262 3.50001 12.598 4.02679 13.5356 4.96447C14.4733 5.90215 15.0001 7.17392 15.0001 8.50001C15.0001 9.82609 14.4733 11.0979 13.5356 12.0355C12.598 12.9732 11.3262 13.5 10.0001 13.5C8.67403 13.5 7.40226 12.9732 6.46457 12.0355C5.52689 11.0979 5.00011 9.82609 5.00011 8.50001ZM10.0001 6.27778C10.0001 7.50348 9.00358 8.50001 7.77789 8.50001C7.53136 8.50001 7.29525 8.45834 7.07303 8.38542C6.88205 8.32292 6.65983 8.44098 6.66678 8.64237C6.67719 8.88195 6.71191 9.12153 6.77789 9.36112C7.25358 11.1389 9.08344 12.1944 10.8612 11.7188C12.639 11.2431 13.6946 9.4132 13.2189 7.63542C12.8334 6.19445 11.5591 5.2257 10.1425 5.16667C9.94108 5.15973 9.82303 5.37848 9.88553 5.57292C9.95844 5.79514 10.0001 6.03126 10.0001 6.27778Z" fill="#878787"/>
</svg>
