<svg width="17" height="21" viewBox="0 0 17 21" fill="none" xmlns="http://www.w3.org/2000/svg">
<path d="M5.13036 1.45736L4.85714 1.99999H1.21429C0.542634 1.99999 0 2.54263 0 3.21428C0 3.88593 0.542634 4.42856 1.21429 4.42856H15.7857C16.4574 4.42856 17 3.88593 17 3.21428C17 2.54263 16.4574 1.99999 15.7857 1.99999H12.1429L11.8696 1.45736C11.6647 1.04374 11.2435 0.785706 10.7844 0.785706H6.21563C5.75647 0.785706 5.33527 1.04374 5.13036 1.45736ZM15.7857 5.64285H1.21429L2.01875 18.5067C2.07946 19.4667 2.87634 20.2143 3.83638 20.2143H13.1636C14.1237 20.2143 14.9205 19.4667 14.9812 18.5067L15.7857 5.64285Z" fill="#F85D5B"/>
</svg>
